<svg xmlns="http://www.w3.org/2000/svg" width="800px" height="800px" viewBox="0 0 24 24" fill="none">
<path fill-rule="evenodd" clip-rule="evenodd" d="M2 5.75C2 5.33579 2.33579 5 2.75 5H20.75C21.1642 5 21.5 5.33579 21.5 5.75C21.5 6.16421 21.1642 6.5 20.75 6.5H2.75C2.33579 6.5 2 6.16421 2 5.75ZM2 9.75C2 9.33579 2.33579 9 2.75 9H20.75C21.1642 9 21.5 9.33579 21.5 9.75C21.5 10.1642 21.1642 10.5 20.75 10.5H2.75C2.33579 10.5 2 10.1642 2 9.75ZM2 13.75C2 13.3358 2.33579 13 2.75 13H9.75C10.1642 13 10.5 13.3358 10.5 13.75C10.5 14.1642 10.1642 14.5 9.75 14.5H2.75C2.33579 14.5 2 14.1642 2 13.75ZM2 17.75C2 17.3358 2.33579 17 2.75 17H9.75C10.1642 17 10.5 17.3358 10.5 17.75C10.5 18.1642 10.1642 18.5 9.75 18.5H2.75C2.33579 18.5 2 18.1642 2 17.75Z" fill="#fff"/>
<g xmlns="http://www.w3.org/2000/svg" style="transform: scale(.8) translate(8px, 8px)">
<path d="M9.5 13.7502C9.5 14.7202 10.25 15.5002 11.17 15.5002H13.05C13.85 15.5002 14.5 14.8202 14.5 13.9702C14.5 13.0602 14.1 12.7302 13.51 12.5202L10.5 11.4702C9.91 11.2602 9.51001 10.9402 9.51001 10.0202C9.51001 9.18023 10.16 8.49023 10.96 8.49023H12.84C13.76 8.49023 14.51 9.27023 14.51 10.2402" stroke="#fff" stroke-width="1.5" stroke-linecap="round" stroke-linejoin="round"/>
<path d="M12 7.5V16.5" stroke="#fff" stroke-width="1.5" stroke-linecap="round" stroke-linejoin="round"/>
</g>
</svg>